# xmcd
#
# Track frame offsets:
#	150
#	23570
#	49709
#	80070
#	123003
#	157533
#	171043
#	218606
#	251537
#	293103
#
# Disc length: 4383 seconds
#
# Revision: 1
# Processed by: cddbd v1.5.2PL0 Copyright (c) Steve Scherf et al.
# Submitted via: audiograbber 1.83.01
#
DISCID=72111d0a
DTITLE=Grateful Dead - 78-01-17 Sacramento Memorial Auditorium, Sacramento CA
DYEAR=1900
DGENRE=
TTITLE0=Promised Land
TTITLE1=Dire Wolf
TTITLE2=Cassidy
TTITLE3=Loser
TTITLE4=Looks Like Rain
TTITLE5=Tuning
TTITLE6=Row Jimmy
TTITLE7=New Minglewood Blues
TTITLE8=It Must Have Been The Roses
TTITLE9=The Music Never Stopped
EXTD=
EXTT0=
EXTT1=
EXTT2=
EXTT3=
EXTT4=
EXTT5=
EXTT6=
EXTT7=
EXTT8=
EXTT9=
PLAYORDER=
